<svg xmlns="http://www.w3.org/2000/svg" width="1024" height="1024" viewBox="0 0 1024 1024" version="1.1">
	<path d="M 0 512.001 L 0 1024.002 512.250 1023.751 L 1024.500 1023.500 1024.751 511.750 L 1025.002 0 512.501 0 L 0 0 0 512.001 M 0.496 512.500 C 0.496 794.100, 0.610 909.151, 0.750 768.168 C 0.890 627.186, 0.890 396.786, 0.750 256.168 C 0.610 115.551, 0.496 230.900, 0.496 512.500 M 493 111.119 C 440.690 113.261, 383.848 128.010, 336.564 151.710 C 267.281 186.437, 209.501 239.274, 167.840 306 C 138.639 352.770, 118.582 410.652, 110.318 472 C 107.775 490.884, 107.759 546.130, 110.291 566.304 C 119.245 637.644, 144.841 702.188, 186.309 758 C 200.119 776.586, 210.689 788.744, 228.973 807.071 C 251.631 829.783, 271.220 845.660, 297.099 862.291 C 339.181 889.334, 395.017 910.610, 447 919.410 C 474.460 924.058, 491.898 925.306, 520.500 924.670 C 583.565 923.267, 638.457 909.511, 695 880.938 C 809.385 823.138, 892.487 707.891, 910.920 581.500 C 923.541 494.952, 911.828 418.289, 874.098 340.500 C 851.539 293.989, 822.112 254.380, 783.732 218.865 C 747.940 185.744, 709.263 160.664, 664.082 141.278 C 624.162 124.149, 575.455 112.877, 535.336 111.483 C 526.626 111.181, 517.700 110.805, 515.500 110.647 C 513.300 110.490, 503.175 110.702, 493 111.119 M 475.500 131.459 C 410.810 138.216, 346.371 162.534, 294.599 199.726 C 217.584 255.053, 164.702 330.116, 141.156 417.528 C 131.158 454.647, 127.732 480.396, 127.722 518.500 C 127.697 612.758, 158.015 695.450, 219.198 768 C 268.515 826.479, 330.107 867.485, 401.543 889.398 C 488.833 916.175, 582.581 910.670, 665.205 873.917 C 709.937 854.019, 745.189 829.756, 780.572 794.510 C 823.290 751.957, 852.721 706.483, 873.127 651.500 C 881.573 628.745, 890.384 591.232, 893.679 564 C 896.177 543.357, 896.196 493.109, 893.713 473.500 C 888.238 430.270, 874.670 385.338, 855.513 347 C 834.749 305.447, 814.760 277.817, 781 244.001 C 756.318 219.279, 733.804 201.364, 707.132 185.222 C 660.208 156.824, 613.148 139.914, 561.500 132.895 C 541.873 130.228, 494.806 129.442, 475.500 131.459 M 479.500 157.718 C 477.300 157.928, 469.720 158.973, 462.655 160.042 C 357.038 176.015, 262.043 240.091, 205.501 333.500 C 195.971 349.242, 180.984 380.168, 174.970 396.500 C 163.731 427.021, 157.067 458.205, 154.051 494.394 C 153.506 500.936, 153.298 506.673, 153.589 507.144 C 153.880 507.615, 158.491 508, 163.837 508 C 171.206 508, 174.118 507.606, 175.885 506.368 C 177.951 504.921, 183.182 504.730, 222.102 504.688 L 265.988 504.640 268.409 506.915 C 269.741 508.166, 271.101 510.268, 271.432 511.586 C 272.235 514.785, 269.728 520.540, 266.863 522.073 C 265.107 523.013, 251.309 523.290, 209.130 523.232 L 153.704 523.155 154.292 538.328 C 156.446 593.960, 173.749 651.467, 203.086 700.500 C 219.756 728.361, 234.851 747.716, 258.500 771.553 C 307.985 821.430, 362.405 852.566, 429.528 869.407 C 454.252 875.610, 488.045 880.286, 499.750 879.124 C 500.708 879.029, 501.004 873.808, 501.015 856.750 C 501.024 844.513, 501.361 834.026, 501.765 833.447 C 502.169 832.868, 504.201 831.117, 506.281 829.555 L 510.061 826.716 509.781 815.295 L 509.500 803.874 504 800.998 C 500.975 799.416, 478.475 788.223, 454 776.124 C 410.250 754.496, 336.593 717.144, 328.245 712.352 L 323.991 709.910 324.245 605.749 L 324.500 501.587 333 495.776 C 342.269 489.439, 364.356 477.910, 381.121 470.658 C 404.614 460.495, 444.329 445.995, 445.490 447.156 C 445.771 447.438, 446.464 455.955, 447.029 466.084 C 451.130 539.564, 466.660 610.843, 492.221 673.500 C 501.707 696.753, 506.184 706.052, 509.312 709 L 511.965 711.500 511.983 756.677 L 512 801.854 521.750 797.443 C 527.112 795.017, 532.175 793.018, 533 793.001 C 534.223 792.975, 534.250 792.811, 533.144 792.110 C 532.210 791.519, 533.453 790.851, 537.126 789.970 C 541.357 788.955, 542.053 788.529, 540.482 787.915 C 539.068 787.362, 538.949 787.120, 540.068 787.070 C 540.931 787.032, 544.081 786.245, 547.068 785.322 C 552.342 783.692, 552.413 783.623, 549.500 782.940 C 546.740 782.293, 546.700 782.226, 549 782.105 C 550.375 782.032, 554.200 781.120, 557.500 780.078 C 562.460 778.511, 562.980 778.154, 560.500 778.021 C 558.850 777.932, 556.600 777.473, 555.500 777 C 554 776.355, 554.701 776.123, 558.307 776.070 C 567.602 775.934, 577.066 772.155, 568.750 771.900 C 560.744 771.655, 560.601 770.355, 568.500 769.635 C 572.900 769.234, 578.300 768.420, 580.500 767.826 C 583.905 766.906, 584.203 766.627, 582.500 765.943 C 581.400 765.502, 578.475 765.064, 576 764.971 C 565.895 764.589, 566.747 763.344, 577.500 762.779 C 583.550 762.461, 589.288 761.883, 590.250 761.494 C 593.738 760.083, 591.868 758.998, 585.750 758.882 C 582.313 758.817, 578.150 758.420, 576.500 758 C 574.084 757.385, 574.680 757.214, 579.566 757.118 C 585.788 756.997, 596.715 755.301, 598.500 754.179 C 599.928 753.282, 592.614 752.125, 585.083 752.058 C 581.554 752.026, 578.875 751.792, 579.129 751.538 C 579.383 751.284, 584.699 750.594, 590.942 750.005 C 604.900 748.689, 607.602 747.534, 598.871 746.615 C 583.480 744.997, 582.934 744.558, 595.552 743.947 C 602.180 743.626, 608.191 743, 608.909 742.556 C 611.463 740.978, 607.677 740.031, 598.750 740.015 C 593.594 740.006, 590 739.589, 590 739 C 590 738.426, 593.091 737.995, 597.250 737.989 C 605.120 737.977, 612 737.105, 612 736.119 C 612 735.779, 608.962 735.356, 605.250 735.181 C 601.537 735.005, 596.700 734.532, 594.500 734.130 C 591.103 733.510, 591.960 733.299, 600.180 732.731 C 605.504 732.364, 611.354 731.410, 613.180 730.613 L 616.500 729.163 610.500 728.983 C 607.200 728.883, 602.025 728.492, 599 728.113 L 593.500 727.424 601.500 726.680 C 613.362 725.576, 617 724.927, 617 723.912 C 617 723.410, 614.413 722.967, 611.250 722.926 C 608.087 722.885, 603.475 722.530, 601 722.136 C 596.675 721.447, 596.812 721.393, 604.500 720.748 C 614.440 719.913, 619 719.010, 619 717.875 C 619 717.394, 615.737 716.974, 611.750 716.942 C 607.763 716.911, 602.700 716.549, 600.500 716.140 C 597.019 715.491, 597.733 715.298, 606 714.648 C 611.225 714.237, 616.555 713.639, 617.845 713.318 C 622.060 712.271, 617.978 711.036, 610 710.945 C 598.301 710.812, 597.132 709.424, 608.110 708.703 C 613.348 708.359, 618.389 707.788, 619.311 707.434 C 622.428 706.238, 619.915 705.001, 614.191 704.912 C 611.061 704.864, 606.250 704.506, 603.500 704.117 L 598.500 703.410 606.500 702.672 C 623.834 701.075, 626.906 699.619, 615.250 698.526 C 611.538 698.178, 606.925 697.514, 605 697.050 C 601.780 696.274, 601.979 696.193, 607.500 696.029 C 616.269 695.770, 622.279 694.675, 622.752 693.250 C 623.043 692.371, 621.730 691.978, 618.333 691.926 C 615.675 691.885, 611.475 691.513, 609 691.099 L 604.500 690.346 608 689.725 C 609.925 689.384, 614.135 688.883, 617.355 688.613 C 622.986 688.142, 624.870 687.537, 623.858 686.525 C 623.597 686.263, 620.101 685.745, 616.089 685.372 C 607.870 684.608, 608.476 683.565, 617.752 682.513 C 621.190 682.122, 624.219 681.455, 624.482 681.029 C 625.099 680.031, 618.971 679.025, 612.191 679.011 C 604.092 678.994, 606.878 677.363, 616.083 676.732 C 625.069 676.116, 628.418 674.534, 622.880 673.521 C 621.021 673.181, 616.575 672.556, 613 672.132 L 606.500 671.361 613.500 670.640 C 624.373 669.520, 627.100 668.970, 626.512 668.019 C 626.213 667.536, 623.388 666.849, 620.234 666.493 C 610.185 665.360, 608.600 664.169, 617 664.064 C 624.094 663.974, 628.218 662.884, 626.805 661.471 C 626.454 661.121, 622.908 660.424, 618.924 659.924 C 609.994 658.803, 608.860 658, 616.208 658 C 622.772 658, 628 657.078, 628 655.920 C 628 655.110, 626.762 654.836, 616.500 653.377 C 610.972 652.591, 611.420 652.412, 621.250 651.481 C 632.009 650.461, 629.421 647.190, 617.625 646.898 C 613.618 646.799, 613.586 646.771, 616.500 645.940 C 618.150 645.469, 621.638 644.813, 624.250 644.481 C 626.862 644.149, 629 643.499, 629 643.037 C 629 641.891, 623.399 640.022, 619.601 639.900 C 616.602 639.804, 616.582 639.774, 619 639 C 620.375 638.560, 623.161 638.155, 625.191 638.100 C 628.957 637.998, 631.186 636.389, 628.813 635.485 C 628.091 635.210, 624.800 634.622, 621.500 634.178 L 615.500 633.372 622.754 632.584 C 626.744 632.151, 630.258 631.391, 630.564 630.896 C 631.347 629.630, 626.646 628.025, 621.685 627.865 C 617.980 627.745, 618.265 627.602, 624.176 626.615 C 627.848 626.002, 631.153 625.195, 631.520 624.823 C 632.289 624.043, 625.710 622.048, 622 621.935 C 619.707 621.866, 619.665 621.788, 621.500 621 C 622.600 620.527, 625.075 620.102, 627 620.055 C 628.925 620.008, 631.160 619.552, 631.966 619.042 C 633.155 618.290, 632.967 617.942, 630.966 617.197 C 629.610 616.693, 626.700 615.903, 624.500 615.442 C 620.687 614.643, 620.640 614.589, 623.500 614.288 C 630.477 613.553, 633 612.831, 633 611.571 C 633 610.101, 630.136 609.087, 625.500 608.917 C 623.141 608.830, 623.729 608.465, 628.250 607.206 C 635.170 605.280, 635.671 603.373, 629.500 602.448 C 623.462 601.542, 623.777 600, 630 600 C 634.333 600, 635 599.733, 635 598 C 635 596.413, 634.328 595.997, 631.750 595.985 C 629.962 595.976, 627.825 595.533, 627 595 C 625.928 594.307, 627.016 594.026, 630.820 594.015 C 635.760 594.001, 636.116 593.840, 635.820 591.750 C 635.576 590.035, 634.667 589.373, 632 588.967 L 628.500 588.434 632.641 587.723 C 638.568 586.704, 639.647 583.104, 634.083 582.910 C 631.713 582.827, 631.768 582.742, 634.750 581.881 C 638.682 580.746, 639.422 577.063, 635.750 576.900 C 633.615 576.806, 633.628 576.765, 636 576.110 C 637.984 575.561, 638.615 574.601, 639.055 571.459 L 639.611 567.500 640.320 573 C 641.741 584.022, 643.038 620.785, 644.022 677.931 C 644.576 710.068, 645.224 736.557, 645.463 736.797 C 645.903 737.237, 655.446 732.258, 680 718.778 L 693.500 711.367 693.755 606.986 L 694.009 502.605 690.755 499.171 C 679.805 487.620, 637.663 467.317, 597 454.003 C 589.025 451.392, 581.038 448.984, 579.250 448.653 L 576 448.050 575.996 459.275 C 575.991 472.210, 574.625 492.596, 572.462 512 C 566.630 564.320, 552.453 616.978, 528.984 673.500 C 517.706 700.660, 512 711.747, 512 706.499 C 512 705.608, 509.572 699.169, 506.604 692.190 C 500.779 678.493, 492.744 657.340, 487.456 641.779 L 484.152 632.058 489.510 594.779 C 497.981 535.849, 498.914 529.734, 500.058 525.655 C 500.910 522.620, 500.845 521.461, 499.751 520.155 C 498.989 519.245, 495.079 513.205, 491.062 506.734 C 487.045 500.263, 483.314 494.694, 482.771 494.358 C 482.228 494.023, 476.770 498.748, 470.642 504.858 L 459.500 515.967 459.251 510.170 L 459.001 504.372 467.751 496.289 C 472.563 491.844, 481.641 483.547, 487.925 477.853 C 494.208 472.159, 499.515 466.991, 499.718 466.370 C 499.921 465.748, 497.480 463.784, 494.293 462.004 C 485.544 457.116, 458.144 440.042, 457.576 439.124 C 457.303 438.681, 458.416 437.329, 460.052 436.120 L 463.025 433.922 485.395 446.961 C 497.699 454.132, 508.308 460, 508.971 460 C 509.865 460, 510.090 456.793, 509.842 447.584 L 509.507 435.169 504.016 434.483 C 486.944 432.350, 471.929 424.867, 458.904 412 C 436.754 390.119, 427.070 357.616, 428.200 308.944 C 428.568 293.078, 428.855 290.780, 431.367 283.538 C 440.777 256.407, 464.696 240.916, 501.177 238.327 L 510 237.701 509.985 225.100 C 509.976 218.170, 509.639 212.026, 509.235 211.447 C 508.831 210.868, 506.813 209.127, 504.750 207.578 L 501 204.763 501 180.881 L 501 157 492.250 157.168 C 487.438 157.261, 481.700 157.508, 479.500 157.718 M 520 168.848 L 520 181 525.446 181 C 533.711 181, 556.398 183.061, 557.261 183.890 C 557.679 184.292, 556.891 190.616, 555.511 197.944 C 554.130 205.272, 553 211.606, 553 212.020 C 553 212.434, 554.392 212.977, 556.094 213.227 C 559.869 213.781, 560.149 213.225, 563.014 199.500 C 566.335 183.590, 565.708 184.868, 569.864 185.540 C 579.441 187.089, 594.100 190.352, 594.518 191.029 C 594.776 191.446, 593.159 197.504, 590.925 204.492 C 588.691 211.480, 587.039 217.373, 587.255 217.588 C 587.470 217.803, 589.011 218.252, 590.679 218.586 C 594.176 219.285, 593.585 220.325, 598.684 204.500 C 600.633 198.450, 602.333 193.381, 602.462 193.236 C 603.226 192.371, 631 202.469, 631 203.612 C 631 203.846, 628.300 210.132, 625 217.581 C 621.700 225.031, 619 231.475, 619 231.902 C 619 232.941, 623.944 235.152, 624.920 234.550 C 625.343 234.288, 628.518 227.801, 631.975 220.134 L 638.260 206.195 641.380 207.280 C 643.096 207.876, 651.370 211.820, 659.767 216.044 L 675.035 223.723 676.892 221.173 L 678.750 218.623 685.825 222.827 C 689.717 225.139, 693.167 227.461, 693.492 227.987 C 693.817 228.513, 693.328 230.095, 692.406 231.503 C 691.484 232.911, 690.903 234.206, 691.115 234.381 C 691.327 234.556, 694.875 236.965, 699 239.735 C 709.646 246.883, 727.179 260.879, 735.262 268.683 L 742.152 275.335 735.826 280.905 C 732.347 283.968, 727.291 288.550, 724.591 291.088 L 719.681 295.701 721.591 298.319 C 722.641 299.759, 723.827 300.951, 724.226 300.969 C 724.625 300.986, 730.117 296.489, 736.430 290.976 L 747.909 280.952 755.829 289.226 C 765.221 299.037, 769.008 303.477, 768.979 304.644 C 768.967 305.115, 767.259 306.701, 765.183 308.168 C 763.107 309.635, 757.266 314.038, 752.203 317.951 C 743.008 325.057, 742.999 325.069, 744.613 327.533 C 745.503 328.890, 746.741 329.987, 747.365 329.971 C 747.989 329.955, 754.125 325.911, 761 320.984 C 767.875 316.058, 773.950 312.030, 774.500 312.034 C 776.123 312.045, 788.412 329.001, 787.411 329.849 C 786.910 330.273, 782.545 333.261, 777.711 336.488 C 772.877 339.715, 767.323 343.738, 765.368 345.428 C 762.043 348.303, 761.895 348.676, 763.068 351.250 C 763.757 352.762, 764.586 353.999, 764.911 353.998 C 765.235 353.996, 771.514 349.923, 778.865 344.946 C 786.216 339.969, 792.309 336.032, 792.405 336.198 C 792.502 336.364, 793.720 338.075, 795.112 340 C 799.163 345.601, 813.519 369.085, 815.861 373.940 C 817.282 376.886, 817.644 378.602, 816.936 379.039 C 816.249 379.464, 817.449 383.220, 820.309 389.599 C 822.750 395.045, 825.892 402.686, 827.291 406.580 L 829.834 413.660 817.167 418.237 L 804.500 422.814 804.781 426.104 C 804.935 427.914, 805.304 429.637, 805.601 429.934 C 805.898 430.231, 811.953 428.486, 819.057 426.057 C 826.161 423.628, 832.261 421.928, 832.612 422.279 C 833.649 423.316, 839.990 449.151, 840.256 453.423 L 840.500 457.346 827.160 459.596 C 819.823 460.834, 813.633 462.034, 813.403 462.263 C 813.174 462.493, 813.270 464.102, 813.618 465.840 C 814.059 468.046, 814.819 469, 816.136 469 C 817.988 469, 834.950 466.472, 840.150 465.421 C 842.731 464.899, 842.829 465.061, 843.922 471.693 C 844.539 475.437, 845.597 485.025, 846.272 493 L 847.500 507.500 858.843 507.784 L 870.185 508.067 869.520 499.284 C 864.742 436.186, 847.604 382.473, 815.214 329.076 C 810.719 321.665, 795.508 299.961, 791.334 295 C 790.177 293.625, 786.413 289.125, 782.970 285 C 779.527 280.875, 769.912 270.744, 761.605 262.487 C 697.885 199.154, 616.567 161.858, 532.389 157.357 L 520 156.695 520 168.848 M 463.250 183.794 C 459.391 184.189, 459.386 184.235, 461.855 198.500 L 463.585 208.500 467.043 208.157 C 468.944 207.969, 470.652 207.667, 470.837 207.487 C 471.367 206.972, 467.832 184.561, 467.129 183.980 C 466.783 183.694, 465.038 183.610, 463.250 183.794 M 425.250 191.706 C 422.239 192.286, 422.376 195.144, 425.957 206.500 C 428.773 215.427, 428.821 215.499, 431.970 215.345 C 433.716 215.259, 435.362 214.972, 435.628 214.705 C 436.100 214.233, 434.389 206.835, 431.360 196.250 C 430.534 193.363, 429.328 191.061, 428.679 191.136 C 428.031 191.211, 426.488 191.467, 425.250 191.706 M 387.750 205.356 C 386.238 205.922, 385 206.965, 385 207.673 C 385 208.715, 393.653 229.606, 394.600 230.850 C 394.901 231.245, 402 229.018, 402 228.528 C 402 227.657, 391.903 205.519, 391.254 204.966 C 390.839 204.614, 389.262 204.789, 387.750 205.356 M 342.314 221.925 C 334.958 226.469, 335.384 230.738, 344.788 246.731 C 348.594 253.204, 355.699 265.475, 360.578 274 C 365.457 282.525, 370.452 290.512, 371.679 291.750 C 374.271 294.365, 377.892 294.624, 382.020 292.490 C 385.460 290.711, 387 288.192, 387 284.344 C 387 281.277, 357.420 228.550, 353.048 223.826 C 349.592 220.090, 346.243 219.497, 342.314 221.925 M 667.230 237.750 C 660.201 248.565, 639.262 282.616, 637.140 286.684 C 635.292 290.226, 635.812 292.966, 638.923 296.077 C 642.811 299.965, 646.089 299.864, 649.489 295.750 C 652.285 292.367, 688.186 234.836, 687.749 234.438 C 686.860 233.627, 675.378 227.005, 674.859 227.003 C 674.506 227.001, 671.073 231.838, 667.230 237.750 M 512.015 262.689 C 512.024 276.335, 512.390 288.066, 512.829 288.757 C 513.453 289.741, 514.994 289.565, 519.913 287.951 C 530.760 284.390, 536.225 281.532, 545.328 274.662 C 550.183 270.998, 554.247 268, 554.359 268 C 554.471 268, 554.649 270.322, 554.754 273.159 C 555.164 284.236, 562.072 297.020, 571.541 304.227 L 577.156 308.500 576.506 319.500 C 575.796 331.509, 573.455 344.919, 571.793 346.500 C 571.064 347.194, 570.942 346.650, 571.396 344.726 C 572.140 341.570, 570.481 326.201, 568.847 321.122 C 568.178 319.043, 564.224 314.238, 558.561 308.622 C 552.166 302.281, 548.467 297.671, 546.430 293.500 C 544.819 290.200, 543.379 287.304, 543.232 287.065 C 543.084 286.826, 541.284 288.260, 539.232 290.253 C 534.683 294.668, 524.145 299.779, 517.871 300.611 L 513.242 301.226 512.791 366.863 C 512.543 402.963, 512.501 432.700, 512.698 432.944 C 513.444 433.871, 525.798 430.710, 532.818 427.795 C 560.850 416.157, 580.751 388.203, 587.490 351 C 590.140 336.370, 590.781 298.607, 588.549 288.575 C 586.246 278.224, 580.225 266.544, 573.683 259.735 C 560.987 246.521, 546.284 240.784, 519.250 238.493 L 512 237.879 512.015 262.689 M 291.029 267.469 L 288.709 269.938 292.806 275.219 C 295.059 278.124, 298.857 282.708, 301.246 285.408 L 305.589 290.315 308.294 288.543 C 309.783 287.568, 311 286.395, 311 285.936 C 311 284.728, 295.138 265, 294.167 265 C 293.717 265, 292.305 266.111, 291.029 267.469 M 505.480 285.032 C 503.856 287.660, 489.295 296.138, 483.123 298.048 C 476.453 300.113, 453.948 304.281, 453.248 303.581 C 453.041 303.374, 454.481 300.009, 456.448 296.102 C 458.416 292.196, 459.627 289, 459.140 289 C 457.385 289, 449.860 298.160, 447.946 302.627 C 444.847 309.857, 443.683 320.141, 444.338 334.500 C 446.067 372.356, 459.246 398.581, 482.664 410.764 C 490.061 414.613, 505.267 419.067, 506.568 417.766 C 507.304 417.029, 507.512 285.179, 506.778 284.444 C 506.460 284.127, 505.876 284.391, 505.480 285.032 M 260.236 296.981 L 257.971 299.851 266.977 307.925 C 271.930 312.366, 276.358 316, 276.817 316 C 277.276 316, 278.720 314.863, 280.026 313.473 L 282.400 310.945 279.950 308.593 C 274.022 302.900, 263.742 294.005, 263.149 294.055 C 262.792 294.086, 261.481 295.402, 260.236 296.981 M 235.716 328.904 C 234.772 330.502, 234 332.017, 234 332.272 C 234 332.846, 252.360 345, 253.226 345 C 253.758 345, 257 339.312, 257 338.378 C 257 337.850, 238.987 326, 238.183 326 C 237.770 326, 236.659 327.307, 235.716 328.904 M 211.110 364.396 C 208.489 365.848, 206.091 369.538, 206.035 372.203 C 205.928 377.387, 208.135 379.076, 226.959 388.215 C 259.821 404.168, 272.977 410, 276.099 410 C 280.226 410, 285 405.244, 285 401.133 C 285 399.404, 284.037 397.046, 282.750 395.622 C 280.229 392.833, 218.594 362.979, 215.472 363.035 C 214.387 363.055, 212.425 363.667, 211.110 364.396 M 799 369.610 C 795.975 371.034, 784.950 376.033, 774.500 380.718 C 740.654 395.894, 737.411 397.595, 736.046 400.888 C 735.371 402.519, 735.119 404.801, 735.487 405.960 C 736.427 408.922, 739.989 412, 742.475 412 C 744.650 412, 789.241 392.451, 803.750 385.137 C 808.288 382.849, 812 380.539, 812 380.003 C 812 378.629, 805.821 366.998, 805.097 367.010 C 804.769 367.015, 802.025 368.185, 799 369.610 M 192.978 417.567 C 192.330 419.529, 191.982 421.315, 192.203 421.537 C 192.703 422.037, 212.120 429, 213.015 429 C 214.100 429, 215.878 422.042, 214.940 421.463 C 213.727 420.713, 195.653 414.011, 194.828 414.005 C 194.458 414.002, 193.625 415.605, 192.978 417.567 M 540.281 451.913 C 529.711 458.286, 520.605 463.966, 520.046 464.535 C 518.907 465.696, 548.881 491.244, 553.396 492.961 C 555.938 493.927, 557.248 492.670, 554.750 491.662 C 554.063 491.385, 554.400 491.108, 555.500 491.047 C 557.474 490.938, 557.474 490.917, 555.559 489.468 C 553.637 488.015, 553.637 488, 555.559 487.968 C 557.480 487.937, 557.480 487.922, 555.559 486.468 C 553.681 485.048, 553.697 484.999, 556.059 484.967 L 558.500 484.933 556 482.834 C 553.591 480.810, 553.582 480.759, 555.750 481.434 C 558.531 482.300, 558.928 479.640, 556.250 478.080 C 554.716 477.187, 554.801 477.057, 556.941 477.030 C 559.303 477.001, 559.319 476.952, 557.441 475.532 C 555.526 474.083, 555.526 474.063, 557.500 474 C 559.474 473.937, 559.474 473.917, 557.559 472.468 C 555.866 471.188, 555.834 471, 557.309 471 C 559.292 471, 559.487 469.887, 557.800 468.200 C 556.867 467.267, 556.893 467, 557.917 467 C 558.741 467, 559.038 466.252, 558.710 465 C 558.411 463.855, 558.682 462.993, 559.344 462.985 C 560.065 462.975, 559.987 462.644, 559.137 462.106 C 557.986 461.377, 557.986 461.157, 559.137 460.697 C 560.255 460.250, 560.230 459.961, 559 459.091 C 558.013 458.393, 557.921 458.025, 558.730 458.015 C 559.508 458.006, 559.832 456.889, 559.609 454.979 C 559.416 453.318, 559.650 451.717, 560.129 451.420 C 561.507 450.569, 561.142 448.802, 559.750 449.588 C 558.750 450.152, 558.750 450.024, 559.750 448.947 C 561.103 447.490, 561.475 441.369, 560.250 440.722 C 559.837 440.504, 550.852 445.540, 540.281 451.913 M 182.547 460.602 C 182.175 462.583, 182.077 464.411, 182.330 464.663 C 182.927 465.260, 205.101 469.237, 205.503 468.819 C 205.671 468.643, 205.965 466.936, 206.155 465.025 L 206.500 461.550 196.500 459.302 C 183.249 456.323, 183.351 456.314, 182.547 460.602 M 536.487 495.250 C 533.312 499.695, 520.686 521.521, 520.723 522.500 C 520.744 523.050, 522.832 536.775, 525.364 553 C 527.896 569.225, 531.290 591.652, 532.906 602.839 C 534.522 614.025, 536.029 623.362, 536.255 623.589 C 536.741 624.075, 545.108 594.216, 547.908 582 C 551.662 565.627, 555.061 547.718, 557.444 531.766 L 559.848 515.675 549.240 504.337 C 543.406 498.102, 538.511 493, 538.363 493 C 538.215 493, 537.370 494.012, 536.487 495.250 M 748.315 506.007 C 743.844 507.808, 742.534 514.967, 745.911 519.139 L 747.822 521.500 795.161 521.500 L 842.500 521.500 842.790 513.250 L 843.081 505 796.790 505.063 C 771.331 505.098, 749.517 505.523, 748.315 506.007 M 847.548 529.750 C 844.481 563.640, 841.958 580.420, 836.931 600.359 C 824.809 648.444, 806.485 686.042, 775.406 726.601 C 765.686 739.286, 747.758 759.306, 745.701 759.772 C 745.041 759.922, 739.558 755.085, 733.517 749.022 C 727.476 742.960, 722.105 738, 721.582 738 C 721.058 738, 719.573 738.992, 718.283 740.204 L 715.938 742.407 727.546 754.046 L 739.155 765.685 732.827 771.749 C 724.563 779.669, 711.272 790.495, 702.500 796.452 C 692.007 803.577, 691.772 803.836, 693.532 806.349 C 696.092 810.004, 695.178 811.377, 687.232 815.810 L 679.508 820.121 677.466 817.560 C 676.344 816.152, 675.023 815, 674.532 815 C 674.040 815, 667.307 818.111, 659.569 821.912 C 635.242 833.864, 606.087 843.844, 582.202 848.395 L 575.240 849.722 572.620 837.601 C 571.179 830.935, 570 824.698, 570 823.740 C 570 821.664, 566.188 821.362, 563.804 823.250 C 562.374 824.382, 562.447 825.583, 564.576 836 C 568.040 852.951, 568.683 851.467, 557.250 852.911 C 551.888 853.588, 541.313 854.402, 533.750 854.720 L 520 855.297 520 867.148 L 520 879 528.394 879 C 559.771 879, 605.484 869.119, 643 854.227 C 690.080 835.539, 726.809 811.215, 764.079 774.042 C 819.712 718.553, 855.223 647.711, 865.914 570.892 C 867.715 557.952, 870 532.672, 870 525.693 L 870 523 859.080 523 L 848.159 523 847.548 529.750 M 190.500 562.379 L 180.500 564.611 180.843 568.055 C 181.031 569.950, 181.357 571.676, 181.567 571.891 C 181.778 572.107, 187.157 571.215, 193.521 569.910 L 205.093 567.536 204.797 564.018 C 204.422 559.578, 203.512 559.474, 190.500 562.379 M 198.678 603.324 L 188.857 606.424 189.518 609.962 C 189.881 611.908, 190.318 613.642, 190.488 613.816 C 190.659 613.990, 196.021 612.501, 202.404 610.509 C 213.897 606.921, 214.003 606.860, 213.366 604.193 C 212.129 599.012, 212.309 599.023, 198.678 603.324 M 742.357 613.970 C 739.536 615.137, 737 618.854, 737 621.821 C 737 624.598, 741.830 629.489, 745.474 630.404 C 746.850 630.749, 761.579 637.550, 778.205 645.516 C 794.831 653.482, 808.555 660, 808.703 660 C 809.303 660, 815 647.957, 815 646.689 C 815 645.380, 798.304 636.941, 764.500 621.161 C 748.022 613.469, 745.527 612.659, 742.357 613.970 M 240.062 630.844 C 210.610 645.967, 207.502 647.801, 206.299 650.775 C 205.570 652.576, 205.254 655.164, 205.596 656.528 C 206.414 659.786, 211.507 664, 214.628 664 C 215.989 664, 227.767 658.424, 240.801 651.609 C 253.836 644.794, 267.997 637.604, 272.272 635.633 C 282.040 631.127, 285 628.297, 285 623.469 C 285 618.526, 280.533 613.961, 275.827 614.094 C 273.615 614.156, 261.631 619.768, 240.062 630.844 M 242.953 694.250 C 237.828 697.688, 233.480 700.986, 233.290 701.581 C 233.101 702.175, 233.859 703.823, 234.976 705.242 L 237.006 707.823 246.753 701.306 C 252.114 697.721, 256.480 694.499, 256.456 694.144 C 256.364 692.796, 253.647 688, 252.975 688 C 252.588 688, 248.078 690.813, 242.953 694.250 M 743.747 713.474 L 741.993 715.885 747.651 719.937 C 752.010 723.058, 753.618 723.732, 754.655 722.872 C 757.146 720.804, 756.032 718.194, 751.116 714.585 C 748.430 712.613, 746.067 711.014, 745.866 711.031 C 745.665 711.049, 744.711 712.148, 743.747 713.474 M 266.715 729.177 L 256.965 737.354 259.652 740.159 C 261.878 742.482, 262.611 742.753, 263.920 741.740 C 264.789 741.067, 269.196 737.409, 273.714 733.612 L 281.928 726.708 279.896 723.854 C 278.778 722.284, 277.549 721, 277.165 721 C 276.780 721, 272.078 724.680, 266.715 729.177 M 298.425 754.250 C 295.108 758.237, 291.313 762.973, 289.992 764.773 L 287.591 768.045 290.158 770.612 L 292.725 773.180 301.869 762.382 L 311.012 751.585 308.256 749.328 C 306.740 748.087, 305.265 747.056, 304.978 747.036 C 304.690 747.016, 301.742 750.263, 298.425 754.250 M 647.337 751.606 C 645.597 752.464, 643.649 754.432, 643.008 755.980 C 641.547 759.508, 642.217 760.871, 654.312 779 C 669.853 802.292, 677.110 812.049, 678.345 811.307 C 678.980 810.926, 681.883 809.099, 684.795 807.247 L 690.090 803.881 687.848 800.191 C 686.615 798.161, 678.928 786.470, 670.766 774.211 C 660.527 758.833, 655.143 751.625, 653.398 750.961 C 650.370 749.810, 651.144 749.728, 647.337 751.606 M 371.126 754.589 C 369.041 755.466, 366.500 758.607, 362.346 765.445 C 359.131 770.738, 352.071 782.298, 346.658 791.135 C 337.889 805.448, 336.884 807.567, 337.445 810.557 C 338.268 814.945, 342.203 818, 347.031 818 C 350.036 818, 351.367 817.340, 353.646 814.720 C 355.954 812.068, 369.205 790.892, 382.734 768.240 C 385.625 763.399, 385.572 760.834, 382.508 757.191 C 379.631 753.773, 375.379 752.801, 371.126 754.589 M 380.605 819.007 C 378.622 823.961, 377 828.412, 377 828.898 C 377 829.666, 380.986 831.281, 383.284 831.444 C 383.989 831.494, 392 814.504, 392 812.959 C 392 812.144, 387.332 810, 385.558 810 C 384.794 810, 382.648 813.902, 380.605 819.007 M 418.122 830.382 C 416.401 836.497, 414.995 842.011, 414.997 842.637 C 415 843.886, 421.108 845.172, 422.151 844.143 C 422.929 843.375, 428 824.856, 428 822.783 C 428 821.987, 426.481 820.869, 424.625 820.300 L 421.250 819.264 418.122 830.382 M 458.035 831.250 C 456.202 839.762, 454.606 850.939, 455.145 851.479 C 455.421 851.754, 457.004 852.251, 458.664 852.583 L 461.682 853.186 463.842 842.343 C 465.030 836.379, 466.001 830.263, 466.001 828.750 C 466 826.287, 465.644 826, 462.583 826 C 459.271 826, 459.131 826.161, 458.035 831.250" stroke="none" fill="#1d4ed8" fill-rule="evenodd"/>
</svg>